<svg xmlns="http://www.w3.org/2000/svg" width="32" height="32" fill="none">
    <path fill="#1F74DF" d="M27.033 7.629a.595.595 0 0 1 .281.94l-.018.021-.02.02L13.3 22.632a.595.595 0 0 1-.747.075l-.093-.076-7.73-7.753a.59.59 0 0 1 .413-1.01H6.81c1.1 0 2.164.435 2.947 1.23l3.118 3.126 8.048-8.078.001-.002.303-.284a8.73 8.73 0 0 1 5.611-2.26h.014zM12.847 22.294q.015.004.029.003a.1.1 0 0 1-.058-.023zm-4.738-7.68-.041-.016zm-.31-.103-.027-.007zm-2.734-.029.003.007q0-.004-.003-.007m2.438-.042-.055-.009zm-2.36-.066-.006.002.007-.001h1.697l-.032-.001z"/>
</svg>